<?xml version="1.0" encoding="UTF-8"?>
<!DOCTYPE svg PUBLIC "-//W3C//DTD SVG 1.1//EN" "http://www.w3.org/Graphics/SVG/1.1/DTD/svg11.dtd">
<svg xmlns="http://www.w3.org/2000/svg" version="1.1" width="1080px" height="1080px" style="shape-rendering:geometricPrecision; text-rendering:geometricPrecision; image-rendering:optimizeQuality; fill-rule:evenodd; clip-rule:evenodd" xmlns:xlink="http://www.w3.org/1999/xlink">
<g><path style="opacity:1" fill="#f1d972" d="M 474.5,-0.5 C 512.5,-0.5 550.5,-0.5 588.5,-0.5C 723.315,15.3358 837.482,72.0025 931,169.5C 1033.8,282.906 1081.8,416.573 1075,570.5C 1062.17,730.343 994.007,860.509 870.5,961C 740.409,1059.69 594.409,1095.69 432.5,1069C 274.298,1037.35 152.132,953.847 66,818.5C 35.2222,767.284 13.0555,712.618 -0.5,654.5C -0.5,576.5 -0.5,498.5 -0.5,420.5C 43.5446,243.963 148.211,117.796 313.5,42C 365.248,20.1322 418.915,5.9655 474.5,-0.5 Z"/></g>
<g><path style="opacity:1" fill="#fcb832" d="M 587.5,56.5 C 600.356,55.6904 606.689,61.6904 606.5,74.5C 606.756,82.1581 603.756,87.9914 597.5,92C 591.76,92.79 586.26,91.9566 581,89.5C 579.051,87.0741 577.385,84.4074 576,81.5C 575.149,75.7469 575.483,70.0802 577,64.5C 580.733,61.8769 584.233,59.2103 587.5,56.5 Z"/></g>
<g><path style="opacity:1" fill="#fdb933" d="M 494.5,91.5 C 505.701,89.2061 512.035,93.7061 513.5,105C 512.128,109.115 510.961,113.282 510,117.5C 503.027,124.11 496.027,124.11 489,117.5C 485.717,111.305 484.884,104.805 486.5,98C 488.465,94.8587 491.132,92.692 494.5,91.5 Z"/></g>
<g><path style="opacity:1" fill="#fcb832" d="M 677.5,90.5 C 689.277,88.5742 696.277,93.4076 698.5,105C 696.784,111.236 693.784,116.736 689.5,121.5C 687.608,122.473 685.608,123.14 683.5,123.5C 679.301,121.808 675.468,119.475 672,116.5C 671.209,112.878 670.042,109.378 668.5,106C 669.888,102.632 671.055,99.1324 672,95.5C 673.936,93.7455 675.77,92.0789 677.5,90.5 Z"/></g>
<g><path style="opacity:1" fill="#fdb835" d="M 589.5,95.5 C 592.744,97.0713 595.411,99.4046 597.5,102.5C 597.928,105.243 599.095,107.576 601,109.5C 603.344,122.955 606.011,136.289 609,149.5C 612.704,158.242 616.871,166.575 621.5,174.5C 628.164,178.063 635.331,180.73 643,182.5C 648.546,180.596 654.046,178.596 659.5,176.5C 666.712,167.575 671.045,157.242 672.5,145.5C 674.417,140.069 677.083,135.069 680.5,130.5C 681.046,128.865 681.38,127.199 681.5,125.5C 682.833,125.5 684.167,125.5 685.5,125.5C 688.121,133.444 691.121,141.277 694.5,149C 697.332,161.848 701.166,174.348 706,186.5C 708.928,196.086 711.428,205.753 713.5,215.5C 718.364,213.309 722.697,210.309 726.5,206.5C 736.964,196.344 747.297,186.178 757.5,176C 760.063,174.921 762.729,174.421 765.5,174.5C 764.19,180.471 762.857,186.471 761.5,192.5C 753.466,214.169 748.3,236.502 746,259.5C 745.339,276.51 744.505,293.51 743.5,310.5C 741.077,319.922 735.077,325.589 725.5,327.5C 718.333,327.833 711.167,328.167 704,328.5C 682.699,327.276 661.533,325.776 640.5,324C 606.834,322.042 573.168,322.042 539.5,324C 518.8,325.75 497.967,327.25 477,328.5C 468.075,328.424 459.242,327.59 450.5,326C 442.279,322.671 437.945,316.505 437.5,307.5C 436.865,287.144 435.865,266.811 434.5,246.5C 430.463,225.223 425.297,204.223 419,183.5C 418.333,181.167 418.333,178.833 419,176.5C 420.836,174.396 423.002,174.062 425.5,175.5C 432.299,184.798 439.965,193.298 448.5,201C 453.272,204.268 457.605,208.102 461.5,212.5C 463.323,213.747 465.323,214.414 467.5,214.5C 471.811,200.791 476.311,187.125 481,173.5C 481.559,169.814 482.226,166.147 483,162.5C 486.447,150.438 490.947,138.771 496.5,127.5C 498.167,126.167 499.833,126.167 501.5,127.5C 506.868,139.089 511.201,151.089 514.5,163.5C 516.274,168.176 518.608,172.509 521.5,176.5C 523.56,178.196 525.893,179.363 528.5,180C 536.888,180.831 545.221,180.497 553.5,179C 554.851,177.383 556.518,176.216 558.5,175.5C 561.559,170.152 564.893,164.985 568.5,160C 572.889,144.487 576.889,128.821 580.5,113C 582.547,108.646 584.214,104.146 585.5,99.5C 586.854,98.1457 588.188,96.8123 589.5,95.5 Z"/></g>
<g><path style="opacity:1" fill="#fcba36" d="M 413.5,134.5 C 427.333,136.532 432.833,144.532 430,158.5C 421.374,172.013 411.374,173.013 400,161.5C 398.853,158.601 398.019,155.601 397.5,152.5C 398.735,148.398 400.235,144.398 402,140.5C 405.774,138.187 409.607,136.187 413.5,134.5 Z"/></g>
<g><path style="opacity:1" fill="#fcb937" d="M 765.5,134.5 C 783.086,137.672 787.92,147.339 780,163.5C 777.557,165.258 775.057,166.925 772.5,168.5C 771.061,169.063 769.561,169.397 768,169.5C 753.554,166.629 748.221,157.963 752,143.5C 753.582,142.04 754.915,140.373 756,138.5C 759.383,137.482 762.55,136.148 765.5,134.5 Z"/></g>
<g><path style="opacity:1" fill="#f1d870" d="M 588.5,178.5 C 592.375,177.874 594.209,179.541 594,183.5C 597.72,189.487 601.887,195.154 606.5,200.5C 607.747,202.323 608.414,204.323 608.5,206.5C 609.552,206.351 610.552,206.517 611.5,207C 617.886,213.055 624.886,218.388 632.5,223C 642.716,226.902 652.383,225.902 661.5,220C 665.128,216.706 668.461,213.206 671.5,209.5C 672.246,208.264 672.579,206.93 672.5,205.5C 674.451,205.227 675.951,205.893 677,207.5C 677.699,215.944 679.033,224.277 681,232.5C 683.601,242.634 690.268,247.634 701,247.5C 703.292,247.219 705.458,246.552 707.5,245.5C 718.901,237.723 729.901,229.723 740.5,221.5C 736.97,238.921 734.636,256.587 733.5,274.5C 728.13,275.099 723.796,273.266 720.5,269C 708.262,262.902 695.262,259.902 681.5,260C 677.559,258.245 673.393,257.078 669,256.5C 616.491,251.187 563.991,251.187 511.5,256.5C 497.479,259.5 483.479,262.5 469.5,265.5C 464.972,267.425 460.472,269.425 456,271.5C 454.161,272.672 452.661,274.172 451.5,276C 450.207,276.49 448.873,276.657 447.5,276.5C 447.666,269.492 447.5,262.492 447,255.5C 444.939,244.551 443.606,233.551 443,222.5C 453.106,230.255 463.273,238.089 473.5,246C 481.891,247.119 489.891,245.952 497.5,242.5C 500.311,230.919 502.978,219.252 505.5,207.5C 506.524,206.147 507.857,205.48 509.5,205.5C 512.669,214.34 518.669,220.673 527.5,224.5C 533.5,225.833 539.5,225.833 545.5,224.5C 550.558,221.641 555.558,218.808 560.5,216C 564.144,211.485 568.311,207.652 573,204.5C 574.333,201.833 575.667,199.167 577,196.5C 582.935,191.895 586.768,185.895 588.5,178.5 Z"/></g>
<g><path style="opacity:1" fill="#fcb532" d="M 586.5,206.5 C 596.214,204.938 602.881,208.605 606.5,217.5C 608.525,225.922 607.025,233.589 602,240.5C 597.486,244.409 592.319,245.409 586.5,243.5C 580.266,242.266 576.266,238.599 574.5,232.5C 572.188,223.641 574.188,215.974 580.5,209.5C 582.594,208.482 584.594,207.482 586.5,206.5 Z"/></g>
<g><path style="opacity:1" fill="#f1d870" d="M 559.5,274.5 C 596.254,273.665 632.92,274.999 669.5,278.5C 683.634,280.878 697.634,283.878 711.5,287.5C 717.122,288.927 722.455,290.927 727.5,293.5C 727.5,297.833 727.5,302.167 727.5,306.5C 682.538,304.042 637.538,302.042 592.5,300.5C 555.492,301.619 518.492,302.952 481.5,304.5C 473.833,304.333 466.167,304.167 458.5,304C 457.286,302.431 455.619,301.598 453.5,301.5C 451.076,302.021 448.743,302.688 446.5,303.5C 446.286,301.856 446.62,300.356 447.5,299C 451.59,296.496 455.59,293.829 459.5,291C 469.889,287.971 480.222,284.971 490.5,282C 513.565,278.785 536.565,276.285 559.5,274.5 Z"/></g>
<g><path style="opacity:1" fill="#030303" d="M 551.5,343.5 C 588.168,343.333 624.835,343.5 661.5,344C 665.531,344.481 669.531,345.147 673.5,346C 687.217,354.852 700.551,364.186 713.5,374C 732.364,392.532 751.531,410.699 771,428.5C 775.763,434.36 779.763,440.693 783,447.5C 783.667,454.167 783.667,460.833 783,467.5C 778.865,476.262 773.365,484.095 766.5,491C 758.493,495.781 749.826,498.781 740.5,500C 717.495,500.894 694.495,501.894 671.5,503C 634.581,506.496 597.581,508.996 560.5,510.5C 560.622,514.147 562.288,516.981 565.5,519C 583.494,533.307 602.827,545.64 623.5,556C 639.659,567.58 655.992,578.913 672.5,590C 685,601.833 697.5,613.667 710,625.5C 714.048,629.88 717.715,634.546 721,639.5C 723.27,643.93 723.937,648.597 723,653.5C 721.222,659.057 718.889,664.391 716,669.5C 702.712,686.577 689.546,703.743 676.5,721C 670.127,727.042 663.46,732.708 656.5,738C 642.259,744.192 627.926,750.192 613.5,756C 601.161,763.838 588.494,771.172 575.5,778C 560.551,781.209 545.885,785.209 531.5,790C 520.947,794.52 510.281,798.853 499.5,803C 477.218,805.006 454.884,806.006 432.5,806C 425.181,808.657 417.848,811.324 410.5,814C 382.186,815.871 355.519,810.204 330.5,797C 320.533,791.899 313.7,784.066 310,773.5C 305.558,750.406 303.725,727.072 304.5,703.5C 304.46,690.142 304.96,676.809 306,663.5C 306.759,660.215 308.092,657.215 310,654.5C 315.198,648.967 320.698,643.8 326.5,639C 343.167,638.333 359.833,638.333 376.5,639C 394.242,649.733 412.242,660.066 430.5,670C 472.126,672.391 513.46,670.058 554.5,663C 557.861,661.574 558.361,659.407 556,656.5C 537.11,640.309 517.943,624.475 498.5,609C 489.323,606.562 479.989,605.896 470.5,607C 465.016,609.746 459.349,611.913 453.5,613.5C 431.486,609.157 411.819,599.99 394.5,586C 385.697,578.198 377.197,570.031 369,561.5C 361.983,553.107 359.15,543.44 360.5,532.5C 360.489,526.12 360.989,519.787 362,513.5C 365.383,503.733 369.049,494.066 373,484.5C 381.83,472.176 390.164,459.509 398,446.5C 407.454,434.044 417.288,421.877 427.5,410C 429.438,408.128 431.771,407.295 434.5,407.5C 438.809,408.327 443.142,408.994 447.5,409.5C 449.965,409.522 452.298,409.022 454.5,408C 471.1,394.07 487.1,379.404 502.5,364C 509.206,357.626 516.206,351.626 523.5,346C 532.91,344.887 542.243,344.053 551.5,343.5 Z"/></g>
<g><path style="opacity:1" fill="#f1d972" d="M 536.5,369.5 C 577.835,369.333 619.168,369.5 660.5,370C 675.211,382.38 690.211,394.38 705.5,406C 719.717,418.63 730.884,433.463 739,450.5C 740.711,456.694 739.211,461.86 734.5,466C 724.043,470.682 713.043,473.016 701.5,473C 667.819,473.135 634.152,473.802 600.5,475C 583.189,476.385 566.189,479.385 549.5,484C 539.74,489.038 529.74,493.705 519.5,498C 513.691,501.309 509.024,505.809 505.5,511.5C 507.69,513.524 510.023,515.357 512.5,517C 520.729,519.781 528.729,523.115 536.5,527C 563.089,540.962 589.089,555.962 614.5,572C 639.011,589.756 663.345,607.756 687.5,626C 692.218,629.343 693.718,633.843 692,639.5C 683.243,651.592 673.076,662.426 661.5,672C 647.246,681.247 633.246,690.913 619.5,701C 586.377,722.057 550.71,737.39 512.5,747C 502.394,748.021 492.394,749.688 482.5,752C 472.22,755.132 461.887,757.965 451.5,760.5C 446.425,760.308 441.758,758.808 437.5,756C 422.5,755.667 407.5,755.333 392.5,755C 384.164,753.831 376.831,750.498 370.5,745C 349.167,726.348 340,702.848 343,674.5C 346.692,667.496 351.525,666.663 357.5,672C 364.639,679.293 371.305,686.959 377.5,695C 385.794,702.312 395.461,706.646 406.5,708C 441.224,708.997 475.89,707.997 510.5,705C 526.167,702 541.833,699 557.5,696C 570.177,690.661 582.843,685.327 595.5,680C 602.068,675.101 607.568,669.268 612,662.5C 613.728,654.072 611.728,646.738 606,640.5C 603.205,638.707 600.705,636.54 598.5,634C 576.669,621.586 555.002,608.919 533.5,596C 523.593,589.429 514.259,582.096 505.5,574C 493.833,573.333 482.167,573.333 470.5,574C 467.382,575.059 464.382,576.392 461.5,578C 458.697,578.755 456.03,578.422 453.5,577C 437.25,561.085 421.416,544.918 406,528.5C 401.349,521.669 400.349,514.335 403,506.5C 413.212,488.962 424.212,471.962 436,455.5C 442.901,447.928 450.401,441.095 458.5,435C 467.599,434.284 475.265,430.617 481.5,424C 500.34,406.327 518.673,388.16 536.5,369.5 Z"/></g>
<g><path style="opacity:1" fill="#919191" d="M 673.5,898.5 C 675.337,898.639 675.67,899.306 674.5,900.5C 673.702,900.043 673.369,899.376 673.5,898.5 Z"/></g>
</svg>
